HIERARCHY
ROOT hip
{
  OFFSET 0 0 0
  CHANNELS 6 Xposition Yposition Zposition Zrotation Yrotation Xrotation
  JOINT abdomen
  {
    OFFSET 0 20.6881 -0.73152
    CHANNELS 3 Zrotation Xrotation Yrotation
    JOINT chest
    {
      OFFSET 0 11.7043 -0.48768
      CHANNELS 3 Zrotation Xrotation Yrotation
      JOINT neck
      {
        OFFSET 0 22.1894 -2.19456
        CHANNELS 3 Zrotation Xrotation Yrotation
        JOINT head
        {
          OFFSET -0.24384 7.07133 1.2192
          CHANNELS 3 Zrotation Xrotation Yrotation
          JOINT leftEye
          {
            OFFSET 4.14528 8.04674 8.04672
            CHANNELS 3 Zrotation Xrotation Yrotation
            End Site
            {
              OFFSET 1 0 0
            }
          }
          JOINT rightEye
          {
            OFFSET -3.6576 8.04674 8.04672
            CHANNELS 3 Zrotation Xrotation Yrotation
            End Site
            {
              OFFSET 1 0 0
            }
          }
        }
      }
      JOINT rCollar
      {
        OFFSET -2.68224 19.2634 -4.8768
        CHANNELS 3 Zrotation Xrotation Yrotation
        JOINT rShldr
        {
          OFFSET -8.77824 -1.95073 1.46304
          CHANNELS 3 Zrotation Xrotation Yrotation
          JOINT rForeArm
          {
            OFFSET -28.1742 -1.7115 0.48768
            CHANNELS 3 Zrotation Xrotation Yrotation
            JOINT rHand
            {
              OFFSET -22.5879 0.773209 7.07136
              CHANNELS 3 Zrotation Xrotation Yrotation
              JOINT rThumb1
              {
                OFFSET -1.2192 -0.487915 3.41376
                CHANNELS 3 Zrotation Xrotation Yrotation
                JOINT rThumb2
                {
                  OFFSET -3.37035 -0.52449 3.41376
                  CHANNELS 3 Zrotation Xrotation Yrotation
                  End Site
                  {
                    OFFSET -1.78271 -1.18214 1.43049
                  }
                }
              }
              JOINT rIndex1
              {
                OFFSET -7.75947 0.938293 5.60832
                CHANNELS 3 Zrotation Xrotation Yrotation
                JOINT rIndex2
                {
                  OFFSET -2.54057 -0.884171 1.56538
                  CHANNELS 3 Zrotation Xrotation Yrotation
                  End Site
                  {
                    OFFSET -1.62519 -0.234802 1.16502
                  }
                }
              }
              JOINT rMid1
              {
                OFFSET -8.24714 1.18213 3.41376
                CHANNELS 3 Zrotation Xrotation Yrotation
                JOINT rMid2
                {
                  OFFSET -3.10165 -0.590103 1.0647
                  CHANNELS 3 Zrotation Xrotation Yrotation
                  End Site
                  {
                    OFFSET -2.48547 -0.328903 0.83742
                  }
                }
              }
              JOINT rRing1
              {
                OFFSET -8.82822 0.546677 1.51678
                CHANNELS 3 Zrotation Xrotation Yrotation
                JOINT rRing2
                {
                  OFFSET -2.60934 -0.819778 -0.0198488
                  CHANNELS 3 Zrotation Xrotation Yrotation
                  End Site
                  {
                    OFFSET -2.33842 -0.294052 0.168128
                  }
                }
              }
              JOINT rPinky1
              {
                OFFSET -8.27202 -0.0477905 -0.4584
                CHANNELS 3 Zrotation Xrotation Yrotation
                JOINT rPinky2
                {
                  OFFSET -1.82734 -0.647385 -0.700984
                  CHANNELS 3 Zrotation Xrotation Yrotation
                  End Site
                  {
                    OFFSET -1.69225 -0.51767 -0.607171
                  }
                }
              }
            }
          }
        }
      }
      JOINT lCollar
      {
        OFFSET 2.68224 19.2634 -4.8768
        CHANNELS 3 Zrotation Xrotation Yrotation
        JOINT lShldr
        {
          OFFSET 8.77824 -1.95073 1.46304
          CHANNELS 3 Zrotation Xrotation Yrotation
          JOINT lForeArm
          {
            OFFSET 28.1742 -1.7115 0.48768
            CHANNELS 3 Zrotation Xrotation Yrotation
            JOINT lHand
            {
              OFFSET 22.5879 0.773209 7.07136
              CHANNELS 3 Zrotation Xrotation Yrotation
              JOINT lThumb1
              {
                OFFSET 1.2192 -0.487915 3.41376
                CHANNELS 3 Zrotation Xrotation Yrotation
                JOINT lThumb2
                {
                  OFFSET 3.37035 -0.52449 3.41376
                  CHANNELS 3 Zrotation Xrotation Yrotation
                  End Site
                  {
                    OFFSET 1.78271 -1.18214 1.43049
                  }
                }
              }
              JOINT lIndex1
              {
                OFFSET 7.75947 0.938293 5.60832
                CHANNELS 3 Zrotation Xrotation Yrotation
                JOINT lIndex2
                {
                  OFFSET 2.54057 -0.884171 1.56538
                  CHANNELS 3 Zrotation Xrotation Yrotation
                  End Site
                  {
                    OFFSET 1.62519 -0.234802 1.16502
                  }
                }
              }
              JOINT lMid1
              {
                OFFSET 8.24714 1.18213 3.41376
                CHANNELS 3 Zrotation Xrotation Yrotation
                JOINT lMid2
                {
                  OFFSET 3.10165 -0.590103 1.0647
                  CHANNELS 3 Zrotation Xrotation Yrotation
                  End Site
                  {
                    OFFSET 2.48547 -0.328903 0.83742
                  }
                }
              }
              JOINT lRing1
              {
                OFFSET 8.82822 0.546677 1.51678
                CHANNELS 3 Zrotation Xrotation Yrotation
                JOINT lRing2
                {
                  OFFSET 2.60934 -0.819778 -0.0198488
                  CHANNELS 3 Zrotation Xrotation Yrotation
                  End Site
                  {
                    OFFSET 2.33842 -0.294052 0.168128
                  }
                }
              }
              JOINT lPinky1
              {
                OFFSET 8.27202 -0.0477905 -0.4584
                CHANNELS 3 Zrotation Xrotation Yrotation
                JOINT lPinky2
                {
                  OFFSET 1.82734 -0.647385 -0.700984
                  CHANNELS 3 Zrotation Xrotation Yrotation
                  End Site
                  {
                    OFFSET 1.69225 -0.51767 -0.607171
                  }
                }
              }
            }
          }
        }
      }
    }
  }
  JOINT rButtock
  {
    OFFSET -8.77824 4.35084 1.2192
    CHANNELS 3 Zrotation Xrotation Yrotation
    JOINT rThigh
    {
      OFFSET 0 -1.70687 -2.19456
      CHANNELS 3 Zrotation Xrotation Yrotation
      JOINT rShin
      {
        OFFSET 0 -36.8199 0.73152
        CHANNELS 3 Zrotation Xrotation Yrotation
        JOINT rFoot
        {
          OFFSET 0.73152 -45.1104 -5.12064
          CHANNELS 3 Zrotation Xrotation Yrotation
          End Site
          {
            OFFSET -1.1221 -3.69964 12.103
          }
        }
      }
    }
  }
  JOINT lButtock
  {
    OFFSET 8.77824 4.35084 1.2192
    CHANNELS 3 Zrotation Xrotation Yrotation
    JOINT lThigh
    {
      OFFSET 0 -1.70687 -2.19456
      CHANNELS 3 Zrotation Xrotation Yrotation
      JOINT lShin
      {
        OFFSET 0 -36.8199 0.73152
        CHANNELS 3 Zrotation Xrotation Yrotation
        JOINT lFoot
        {
          OFFSET -0.73152 -45.1104 -5.12064
          CHANNELS 3 Zrotation Xrotation Yrotation
          End Site
          {
            OFFSET 1.1221 -3.69964 12.103
          }
        }
      }
    }
  }
}
MOTION
Frames:	4
Frame Time:	0.03333
2.0369200199638726 67.32569932937622 -7.778999987203861 -11.228005409240723 62.184410095214844 -4.782989025115967 1.47258460521698 15.629611015319824 1.6950623989105225 5.80372428894043 -8.177999496459961 0.8462227582931519 -9.261489868164062 24.191003799438477 -17.260099411010742 17.58160400390625 -32.193199157714844 -30.102506637573242 -0.0 0.0 -0.0 -0.0 0.0 -0.0 0.0 0.0 -0.0 54.015804290771484 -6.436044692993164 23.261199951171875 -24.25140953063965 -19.573787689208984 50.41859817504883 -0.3447359502315521 16.140056610107422 2.3313794136047363 -0.0 -0.0 -0.0 -0.0 -0.0 -0.0 -0.0 -0.0 -0.0 7.730902194976807 5.47491455078125 0.4173222780227661 -0.0 -0.0 -0.0 2.905566453933716 0.9650754332542419 0.10300818830728531 -0.0 -0.0 -0.0 10.278596878051758 0.7318810820579529 0.026273518800735474 -0.0 -0.0 -0.0 2.221662998199463 -0.7334509491920471 -0.20832103490829468 0.0 0.0 -0.0 -63.550201416015625 57.83439636230469 -18.55518913269043 27.48611068725586 -42.55939483642578 -88.6384048461914 2.3917689323425293 -39.50177001953125 6.654780387878418 -0.0 0.0 -0.0 -0.0 0.0 -0.0 -0.0 0.0 -0.0 -7.730902194976807 5.47491455078125 -0.4173222780227661 -0.0 0.0 -0.0 -2.905566453933716 0.9650754332542419 -0.10300818830728531 -0.0 0.0 -0.0 -10.278596878051758 0.7318810820579529 -0.026273518800735474 -0.0 0.0 -0.0 -2.221662998199463 -0.7334509491920471 0.20832103490829468 -0.0 0.0 -0.0 -17.092288970947266 -4.707594394683838 0.5296228528022766 -0.3295092284679413 44.30500411987305 1.4177676439285278 -5.9927754402160645 -11.542802810668945 -17.041013717651367 0.0 0.0 0.0 37.41122055053711 -58.479896545410156 29.471120834350586 2.943464756011963 74.02117919921875 -3.050828456878662 4.223027229309082 -7.5220184326171875 14.209707260131836
2.300250011103344 68.11320185661316 -8.725000019330764 -8.30398941040039 60.01768112182617 -1.5639768838882446 0.47362515330314636 15.99579906463623 1.7578855752944946 5.425214767456055 -8.219244956970215 0.781450092792511 -9.38492202758789 23.893798828125 -16.775388717651367 17.472898483276367 -32.84189987182617 -29.142805099487305 -0.0 0.0 -0.0 -0.0 0.0 -0.0 0.0 0.0 -0.0 52.69449996948242 -3.073636531829834 23.67000389099121 -23.867090225219727 -18.849912643432617 49.19858932495117 -0.5843744874000549 21.19414520263672 3.122713804244995 0.0 0.0 0.0 0.0 0.0 0.0 0.0 0.0 0.0 7.730902194976807 5.47491455078125 0.4173222780227661 0.0 0.0 0.0 2.905566453933716 0.9650754332542419 0.10300818830728531 0.0 0.0 0.0 10.278596878051758 0.7318810820579529 0.026273518800735474 0.0 0.0 0.0 2.221662998199463 -0.7334509491920471 -0.20832103490829468 0.0 0.0 -0.0 -56.724300384521484 55.71599578857422 -26.924400329589844 27.27781105041504 -43.2239875793457 -89.92110443115234 2.2013132572174072 -38.20303726196289 6.350741386413574 -0.0 0.0 -0.0 -0.0 0.0 -0.0 -0.0 0.0 -0.0 -7.730902194976807 5.47491455078125 -0.4173222780227661 -0.0 0.0 -0.0 -2.905566453933716 0.9650754332542419 -0.10300818830728531 -0.0 0.0 -0.0 -10.278596878051758 0.7318810820579529 -0.026273518800735474 -0.0 0.0 -0.0 -2.221662998199463 -0.7334509491920471 0.20832103490829468 -0.0 0.0 -0.0 -18.614904403686523 -9.98488712310791 0.7651485800743103 -0.4891718626022339 48.946022033691406 1.3469306230545044 -4.436522006988525 -5.717761993408203 -17.03459930419922 0.0 0.0 0.0 30.36859130859375 -58.569278717041016 22.912189483642578 2.5871694087982178 72.4102783203125 -2.6866514682769775 4.528496265411377 -7.723746299743652 15.423898696899414
2.563230011219275 68.87419819831848 -9.598000007827068 -6.145016193389893 57.79258346557617 0.845025360584259 -0.834845781326294 16.330799102783203 1.9752936363220215 5.262293338775635 -8.313937187194824 0.7697855830192566 -9.462306022644043 23.620901107788086 -16.334701538085938 17.37470245361328 -33.23250198364258 -28.2721004486084 -0.0 0.0 -0.0 -0.0 0.0 -0.0 0.0 0.0 -0.0 51.316505432128906 0.2592492401599884 24.331600189208984 -23.41490364074707 -18.044509887695312 47.798397064208984 -0.8762754797935486 25.37994956970215 3.8264546394348145 0.0 0.0 0.0 0.0 0.0 0.0 0.0 0.0 0.0 7.730902194976807 5.47491455078125 0.4173222780227661 0.0 0.0 0.0 2.905566453933716 0.9650754332542419 0.10300818830728531 0.0 0.0 0.0 10.278596878051758 0.7318810820579529 0.026273518800735474 0.0 0.0 0.0 2.221662998199463 -0.7334509491920471 -0.20832103490829468 0.0 0.0 -0.0 -50.93130111694336 52.89790344238281 -33.95179748535156 27.034696578979492 -43.92669677734375 -91.29309844970703 2.0620546340942383 -37.19504165649414 6.122975826263428 -0.0 0.0 -0.0 -0.0 0.0 -0.0 -0.0 0.0 -0.0 -7.730902194976807 5.47491455078125 -0.4173222780227661 -0.0 0.0 -0.0 -2.905566453933716 0.9650754332542419 -0.10300818830728531 -0.0 0.0 -0.0 -10.278596878051758 0.7318810820579529 -0.026273518800735474 -0.0 0.0 -0.0 -2.221662998199463 -0.7334509491920471 0.20832103490829468 -0.0 0.0 -0.0 -19.938196182250977 -15.776115417480469 0.41071951389312744 -0.728140652179718 54.179229736328125 1.3548115491867065 -2.976912260055542 -0.5476508140563965 -16.637802124023438 0.0 0.0 0.0 23.633377075195312 -58.373008728027344 16.427263259887695 2.322709083557129 71.03230285644531 -2.4432456493377686 4.85792350769043 -8.132932662963867 16.58100128173828
2.954000018144143 69.36010122299194 -10.210000011284137 -4.485224723815918 55.41048049926758 2.7434165477752686 -2.454288959503174 16.633995056152344 2.3477706909179688 5.315168857574463 -8.462082862854004 0.8116893172264099 -9.495078086853027 23.37318992614746 -15.937406539916992 17.272396087646484 -33.36249923706055 -27.49679183959961 -0.0 0.0 -0.0 -0.0 0.0 -0.0 -0.0 0.0 0.0 49.84320068359375 3.545999526977539 25.250301361083984 -22.878604888916016 -17.13808250427246 46.22390365600586 -1.1139769554138184 28.702402114868164 4.408486366271973 -0.0 0.0 -0.0 -0.0 0.0 -0.0 -0.0 0.0 -0.0 7.730902194976807 5.47491455078125 0.4173222780227661 -0.0 0.0 -0.0 2.905566453933716 0.9650754332542419 0.10300818830728531 -0.0 0.0 -0.0 10.278596878051758 0.7318810820579529 0.026273518800735474 -0.0 0.0 -0.0 2.221662998199463 -0.7334509491920471 -0.20832103490829468 -0.0 0.0 0.0 -46.13329315185547 49.56950378417969 -39.724395751953125 26.748092651367188 -44.662811279296875 -92.76649475097656 1.96719229221344 -36.47832489013672 5.964688777923584 -0.0 0.0 -0.0 -0.0 0.0 -0.0 -0.0 0.0 -0.0 -7.730902194976807 5.47491455078125 -0.4173222780227661 -0.0 0.0 -0.0 -2.905566453933716 0.9650754332542419 -0.10300818830728531 -0.0 0.0 -0.0 -10.278596878051758 0.7318810820579529 -0.026273518800735474 -0.0 0.0 -0.0 -2.221662998199463 -0.7334509491920471 0.20832103490829468 -0.0 0.0 -0.0 -21.264385223388672 -22.07880401611328 -0.590461254119873 -1.0939667224884033 60.004398345947266 1.4815199375152588 -1.7263460159301758 4.005782604217529 -15.794991493225098 0.0 0.0 0.0 17.290197372436523 -57.91433334350586 10.10633659362793 2.1195435523986816 69.88761901855469 -2.29055118560791 5.222922325134277 -8.7462739944458 17.684005737304688
